<?xml version="1.0" encoding="iso-8859-1"?>
<!-- Generator: Adobe Illustrator 19.0.0, SVG Export Plug-In . SVG Version: 6.00 Build 0)  -->
<svg version="1.1" id="Layer_1" xmlns="http://www.w3.org/2000/svg" xmlns:xlink="http://www.w3.org/1999/xlink" x="0px" y="0px"
	 viewBox="0 0 512 512" style="enable-background:new 0 0 512 512;" xml:space="preserve">
<g>
	<g>
		<rect x="100.174" y="372.87" width="33.391" height="33.391"/>
	</g>
</g>
<g>
	<g>
		<rect x="166.957" y="372.87" width="33.391" height="33.391"/>
	</g>
</g>
<g>
	<g>
		<rect x="367.304" y="372.87" width="33.391" height="33.391"/>
	</g>
</g>
<g>
	<g>
		<rect x="300.522" y="372.87" width="33.391" height="33.391"/>
	</g>
</g>
<g>
	<g>
		<path d="M495.304,88.304V55.652c0-27.619-22.468-50.087-50.087-50.087H294.957c-21.772,0-40.337,13.956-47.229,33.391h-52.945
			c-27.619,0-50.087,22.468-50.087,50.087c0,27.971,22.707,50.087,50.087,50.087h100.174c21.772,0,40.337-13.956,47.229-33.391
			h51.493l-13.913,166.957h-45.852v-83.478c0-13.289-14.829-21.27-25.956-13.891l-124.305,82.869v-68.979
			c0-13.252-14.783-21.286-25.956-13.891L7.435,275.501C2.794,278.598,0,283.804,0,289.391v200.348
			c0,9.217,7.479,16.696,16.696,16.696h478.609c9.217,0,16.696-7.479,16.696-16.696V289.391
			C512,288.285,495.397,89.406,495.304,88.304z M466.032,139.13h-41.63l2.783-33.391h36.065L466.032,139.13z M318.598,72.348
			l-7.88,22.229c-1.978,5.554-7.609,11.163-15.761,11.163H194.783c-8.741,0-16.696-6.926-16.696-16.696
			c0-9.206,7.49-16.696,16.696-16.696h76.533l7.88-22.229c1.978-5.554,7.609-11.163,15.761-11.163h150.261
			c9.206,0,16.696,7.49,16.696,16.696v16.696H318.598z M233.739,422.957c0,9.217-7.479,16.696-16.696,16.696H83.478
			c-9.217,0-16.696-7.479-16.696-16.696v-66.783c0-9.217,7.479-16.696,16.696-16.696h133.565c9.217,0,16.696,7.479,16.696,16.696
			V422.957z M434.087,422.957c0,9.217-7.479,16.696-16.696,16.696H283.826c-9.217,0-16.696-7.479-16.696-16.696v-66.783
			c0-9.217,7.479-16.696,16.696-16.696h133.565c9.217,0,16.696,7.479,16.696,16.696V422.957z M413.272,272.696l2.783-33.391h58.326
			l2.783,33.391H413.272z"/>
	</g>
</g>
<g>
</g>
<g>
</g>
<g>
</g>
<g>
</g>
<g>
</g>
<g>
</g>
<g>
</g>
<g>
</g>
<g>
</g>
<g>
</g>
<g>
</g>
<g>
</g>
<g>
</g>
<g>
</g>
<g>
</g>
</svg>
