<?xml version="1.0" encoding="UTF-8" standalone="no"?>
<!-- Created with Inkscape (http://www.inkscape.org/) -->

<svg
   xmlns:dc="http://purl.org/dc/elements/1.1/"
   xmlns:cc="http://creativecommons.org/ns#"
   xmlns:rdf="http://www.w3.org/1999/02/22-rdf-syntax-ns#"
   xmlns:svg="http://www.w3.org/2000/svg"
   xmlns="http://www.w3.org/2000/svg"
   xmlns:sodipodi="http://sodipodi.sourceforge.net/DTD/sodipodi-0.dtd"
   xmlns:inkscape="http://www.inkscape.org/namespaces/inkscape"
   width="167.46527mm"
   height="152.70648mm"
   viewBox="0 0 593.38088 541.08596"
   id="svg3402"
   version="1.1"
   inkscape:version="0.91 r13725"
   sodipodi:docname="boiler2.svg">
  <sodipodi:namedview
     pagecolor="#ffffff"
     bordercolor="#666666"
     borderopacity="1"
     objecttolerance="10"
     gridtolerance="10"
     guidetolerance="10"
     inkscape:pageopacity="0"
     inkscape:pageshadow="2"
     inkscape:window-width="1920"
     inkscape:window-height="1054"
     id="namedview3409"
     showgrid="false"
     inkscape:zoom="0.88433546"
     inkscape:cx="103.89125"
     inkscape:cy="270.54284"
     inkscape:window-x="0"
     inkscape:window-y="0"
     inkscape:window-maximized="1"
     inkscape:current-layer="svg3402"
     fit-margin-top="0"
     fit-margin-left="0"
     fit-margin-right="0"
     fit-margin-bottom="0" />
  <metadata
     id="metadata3411">
    <rdf:RDF>
      <cc:Work
         rdf:about="">
        <dc:format>image/svg+xml</dc:format>
        <dc:type
           rdf:resource="http://purl.org/dc/dcmitype/StillImage" />
        <dc:title />
      </cc:Work>
    </rdf:RDF>
  </metadata>
  <defs
     id="defs3404" />
  <g
     id="g3339">
    <path
       id="path3407"
       d="M110.574236 24.5957C98.761976 24.5957 89.200246 34.85456 88.734386 47.78711C88.734226 47.79111 88.734556 47.79311 88.734386 47.79711C88.722886 48.1214 88.712886 48.44615 88.712886 48.77368C88.712886 48.77368 88.712886 212.26391 88.712886 212.26391C88.712886 212.26391 84.638666 212.26391 84.638666 212.26391C52.691916 212.26391 26.972656 237.98318 26.972656 269.92993C26.972656 269.92993 26.972656 432.06469 26.972656 432.06469C26.972656 464.01144 52.691916 489.72875 84.638666 489.72875C84.638666 489.72875 93.169916 489.72875 93.169916 489.72875C93.169916 489.72875 93.169916 516.49047 93.169916 516.49047C93.169916 516.49047 152.324216 516.49047 152.324216 516.49047C152.324216 516.49047 152.324216 489.72875 152.324216 489.72875C152.324216 489.72875 441.056636 489.72875 441.056636 489.72875C441.056636 489.72875 441.056636 516.49047 441.056636 516.49047C441.056636 516.49047 500.212886 516.49047 500.212886 516.49047C500.212886 516.49047 500.212886 489.72875 500.212886 489.72875C500.212886 489.72875 508.744136 489.72875 508.744136 489.72875C540.690886 489.72875 566.410186 464.01144 566.410146 432.06469C566.410146 432.06469 566.410146 269.92993 566.410146 269.92993C566.410146 237.98318 540.690886 212.26391 508.744136 212.26391C508.744136 212.26391 493.853506 212.26391 493.853506 212.26391C503.342404591 203.295694844 508.678398943 191.139582702 508.691406 178.46118C508.691288621 165.760599864 503.349071964 153.580256713 493.84000355 144.599734512C484.330935135 135.619212312 471.433963683 130.574163174 457.986326 130.57446C436.757362314 130.601621362 417.793748298 143.116201966 410.466796 161.93383C403.13959511 143.11556671 384.174987871 130.600846837 362.945306 130.57446C334.942793531 130.574864235 312.242430427 152.014293049 312.242186 178.46118C312.254670324 191.139316045 317.589939793 203.295390746 327.078116 212.26391C327.078116 212.26391 131.945306 212.26391 131.945306 212.26391C131.945306 212.26391 131.945306 72.95336 131.945306 72.95336C131.945306 72.95336 382.638666 72.95336 382.638666 72.95336C394.750406 72.95336 404.501946 62.16823 404.501946 48.77368C404.501946 35.37912 394.750406 24.59594 382.638666 24.59594C382.638666 24.59594 110.574216 24.59594 110.574216 24.59594C110.574216 24.59594 110.574236 24.5957 110.574236 24.5957M362.945326 146.89844C372.313434402 146.898333116 381.297881841 150.223627897 387.922122226 156.142771461C394.546362611 162.061915026 398.267751236 170.090022809 398.267596 178.46094C398.267751236 186.831857191 394.546362611 194.859964974 387.922122226 200.779108539C381.297881841 206.698252103 372.313434402 210.023546884 362.945326 210.02344C353.577219331 210.023544514 344.59277446 206.698248687 337.968536239 200.77910538C331.344298017 194.859962072 327.622910764 186.831855643 327.623066 178.46094C327.622910764 170.090024357 331.344298017 162.061917928 337.968536238 156.142774621C344.59277446 150.223631313 353.577219331 146.898335486 362.945326 146.89844C362.945326 146.89844 362.945326 146.89844 362.945326 146.89844M457.986346 146.89844C467.354452669 146.898335486 476.33889754 150.223631313 482.963135761 156.14277462C489.587373983 162.061917928 493.308761236 170.090024357 493.308606 178.46094C493.308761236 186.831855643 489.587373983 194.859962072 482.963135762 200.779105379C476.33889754 206.698248687 467.354452669 210.023544514 457.986346 210.02344C448.618237598 210.023546884 439.633790159 206.698252103 433.009549774 200.779108539C426.385309389 194.859964974 422.663920764 186.831857191 422.664076 178.46094C422.663920764 170.090022809 426.385309389 162.061915026 433.009549774 156.142771461C439.633790159 150.223627897 448.618237598 146.898333116 457.986346 146.89844C457.986346 146.89844 457.986346 146.89844 457.986346 146.89844M348.660166 156.14258C348.660166 156.14258 339.580096 164.81641 339.580096 164.81641C339.580096 164.81641 362.417986 186.62891 362.417986 186.62891C362.417986 186.62891 371.498066 177.95703 371.498066 177.95703C371.498066 177.95703 348.660166 156.14258 348.660166 156.14258C348.660166 156.14258 348.660166 156.14258 348.660166 156.14258M472.271496 156.14258C472.271496 156.14258 449.435566 177.95703 449.435566 177.95703C449.435566 177.95703 458.515636 186.62891 458.515636 186.62891C458.515636 186.62891 481.351576 164.81641 481.351576 164.81641C481.351576 164.81641 472.271496 156.14258 472.271496 156.14258C472.271496 156.14258 472.271496 156.14258 472.271496 156.14258M410.464856 195.06641C412.994279605 201.523118748 416.96804035 207.388827683 422.115246 212.26367C422.115246 212.26367 398.818376 212.26367 398.818376 212.26367C403.964171893 207.38847006 407.936580991 201.522787719 410.464856 195.06641C410.464856 195.06641 410.464856 195.06641 410.464856 195.06641M174.378926 240.43359C174.378926 240.43359 203.906266 240.43359 203.906266 240.43359C211.332736 240.43359 217.310566 246.41142 217.310566 253.83789C217.310566 253.83789 217.310566 448.1543 217.310566 448.1543C217.310566 455.58077 211.332736 461.56055 203.906266 461.56055C203.906266 461.56055 174.378926 461.56055 174.378926 461.56055C166.952446 461.56055 160.972686 455.58077 160.972666 448.1543C160.972666 448.1543 160.972666 253.83789 160.972666 253.83789C160.972666 246.41142 166.952446 240.43359 174.378926 240.43359C174.378926 240.43359 174.378926 240.43359 174.378926 240.43359M395.419936 240.43359C395.419936 240.43359 424.947276 240.43359 424.947276 240.43359C432.373756 240.43359 438.353526 246.41142 438.353526 253.83789C438.353526 253.83789 438.353526 448.1543 438.353526 448.1543C438.353526 455.58077 432.373756 461.56055 424.947276 461.56055C424.947276 461.56055 395.419936 461.56055 395.419936 461.56055C387.993466 461.56055 382.015636 455.58077 382.015636 448.1543C382.015636 448.1543 382.015636 253.83789 382.015636 253.83789C382.015636 246.41142 387.993466 240.43359 395.419936 240.43359C395.419936 240.43359 395.419936 240.43359 395.419936 240.43359" />
  </g>
  <path
     id="rect3493"
     d="M32.861328 0.0C14.656957 0.0 0.0 14.656957 0.0 32.861328C0.0 32.861328 0.0 508.22461 0.0 508.22461C0.0 526.42898 14.656957 541.08593 32.861328 541.08593C32.861328 541.08593 560.52149 541.08593 560.52149 541.08593C578.72586 541.08593 593.38086 526.42898 593.38086 508.22461C593.38086 508.22461 593.38086 32.861328 593.38086 32.861328C593.38086 14.656957 578.72586 0.0 560.52149 0.0C560.52149 0.0 32.861328 0.0 32.861328 0.0C32.861328 0.0 32.861328 0.0 32.861328 0.0M110.57422 24.595703C110.57422 24.595703 382.63868 24.595703 382.63868 24.595703C394.75042 24.595703 404.50196 35.378877 404.50196 48.773437C404.50196 62.167987 394.75042 72.953125 382.63868 72.953125C382.63868 72.953125 131.94532 72.953125 131.94532 72.953125C131.94532 72.953125 131.94532 212.26367 131.94532 212.26367C131.94532 212.26367 327.07813 212.26367 327.07813 212.26367C317.589947536 203.295149837 312.254674175 191.139070864 312.24219 178.46093C312.242440274 152.014043266 334.94280776 130.574619019 362.94532 130.57422C384.174998207 130.600610789 403.139600379 143.115329952 410.4668 161.93359C417.793752298 143.115961966 436.757366314 130.601381362 457.98633 130.57422C471.433965849 130.573923174 484.330935696 135.618970939 493.840003806 144.599490977C503.349071917 153.580011015 508.691289813 165.760351597 508.69141 178.460930001C508.678408399 191.139334815 503.342417514 203.295450848 493.85352 212.26367C493.85352 212.26367 508.74414 212.26367 508.74414 212.26367C540.69089 212.26367 566.41016 237.98293 566.41016 269.92968C566.41016 269.92968 566.41016 432.06445 566.41016 432.06445C566.4102 464.0112 540.69089 489.72851 508.74414 489.72851C508.74414 489.72851 500.21289 489.72851 500.21289 489.72851C500.21289 489.72851 500.21289 516.49023 500.21289 516.49023C500.21289 516.49023 441.05664 516.49023 441.05664 516.49023C441.05664 516.49023 441.05664 489.72851 441.05664 489.72851C441.05664 489.72851 152.32422 489.72851 152.32422 489.72851C152.32422 489.72851 152.32422 516.49023 152.32422 516.49023C152.32422 516.49023 93.169922 516.49023 93.169922 516.49023C93.169922 516.49023 93.169922 489.72851 93.169922 489.72851C93.169922 489.72851 84.638672 489.72851 84.638672 489.72851C52.691922 489.72851 26.972656 464.0112 26.972656 432.06445C26.972656 432.06445 26.972656 269.92968 26.972656 269.92968C26.972656 237.98293 52.691922 212.26367 84.638672 212.26367C84.638672 212.26367 88.71289 212.26367 88.71289 212.26367C88.71289 212.26367 88.71289 48.773437 88.71289 48.773437C88.71289 48.445907 88.72289 48.121165 88.73437 47.796875C88.73454 47.792875 88.73421 47.791075 88.73437 47.787075C89.200235 34.854559 98.761959 24.595703 110.57422 24.595703C110.57422 24.595703 110.57422 24.595703 110.57422 24.595703M362.94532 146.89843C353.577211598 146.898323116 344.592764159 150.223617897 337.968523774 156.142761461C331.344283389 162.061905026 327.622894764 170.090012809 327.62305 178.46093C327.622894764 186.831847191 331.344283389 194.859954974 337.968523774 200.779098539C344.592764159 206.698242103 353.577211598 210.023536884 362.94532 210.02343C372.313426669 210.023534514 381.29787154 206.698238687 387.922109761 200.77909538C394.546347983 194.859952072 398.267735236 186.831845643 398.26758 178.46093C398.267735236 170.090014357 394.546347983 162.061907928 387.922109762 156.142764621C381.29787154 150.223621313 372.313426669 146.898325486 362.94532 146.89843C362.94532 146.89843 362.94532 146.89843 362.94532 146.89843M457.98633 146.89843C448.618223331 146.898325486 439.63377846 150.223621313 433.009540239 156.14276462C426.385302017 162.061907928 422.663914764 170.090014357 422.66407 178.46093C422.663914764 186.831845643 426.385302017 194.859952072 433.009540238 200.779095379C439.63377846 206.698238687 448.618223331 210.023534514 457.98633 210.02343C467.354438402 210.023536884 476.338885841 206.698242103 482.963126226 200.779098539C489.587366611 194.859954974 493.308755236 186.831847191 493.3086 178.46093C493.308755236 170.090012809 489.587366611 162.061905026 482.963126226 156.142761461C476.338885841 150.223617897 467.354438402 146.898323116 457.98633 146.89843C457.98633 146.89843 457.98633 146.89843 457.98633 146.89843M348.66016 156.14258C348.66016 156.14258 371.49805 177.95703 371.49805 177.95703C371.49805 177.95703 362.41797 186.6289 362.41797 186.6289C362.41797 186.6289 339.58008 164.8164 339.58008 164.8164C339.58008 164.8164 348.66016 156.14258 348.66016 156.14258C348.66016 156.14258 348.66016 156.14258 348.66016 156.14258M472.27149 156.14258C472.27149 156.14258 481.35157 164.8164 481.35157 164.8164C481.35157 164.8164 458.51563 186.6289 458.51563 186.6289C458.51563 186.6289 449.43555 177.95703 449.43555 177.95703C449.43555 177.95703 472.27149 156.14258 472.27149 156.14258C472.27149 156.14258 472.27149 156.14258 472.27149 156.14258M410.46485 195.0664C407.936573405 201.522782138 403.964160775 207.388468071 398.81836 212.26367C398.81836 212.26367 422.11524 212.26367 422.11524 212.26367C416.968033075 207.388824779 412.994272253 201.52311232 410.46485 195.0664C410.46485 195.0664 410.46485 195.0664 410.46485 195.0664M174.37891 240.43359C166.95243 240.43359 160.97266 246.41142 160.97266 253.83789C160.97266 253.83789 160.97266 448.15429 160.97266 448.15429C160.97268 455.58076 166.95243 461.56054 174.37891 461.56054C174.37891 461.56054 203.90625 461.56054 203.90625 461.56054C211.33272 461.56054 217.31055 455.58076 217.31055 448.15429C217.31055 448.15429 217.31055 253.83789 217.31055 253.83789C217.31055 246.41142 211.33272 240.43359 203.90625 240.43359C203.90625 240.43359 174.37891 240.43359 174.37891 240.43359C174.37891 240.43359 174.37891 240.43359 174.37891 240.43359M395.41993 240.43359C387.99346 240.43359 382.01563 246.41142 382.01563 253.83789C382.01563 253.83789 382.01563 448.15429 382.01563 448.15429C382.01563 455.58076 387.99346 461.56054 395.41993 461.56054C395.41993 461.56054 424.94727 461.56054 424.94727 461.56054C432.37375 461.56054 438.35352 455.58076 438.35352 448.15429C438.35352 448.15429 438.35352 253.83789 438.35352 253.83789C438.35352 246.41142 432.37375 240.43359 424.94727 240.43359C424.94727 240.43359 395.41993 240.43359 395.41993 240.43359C395.41993 240.43359 395.41993 240.43359 395.41993 240.43359"
     style="fill:#ff0000;fill-opacity:1" />
</svg>
