<?xml version="1.0" encoding="UTF-8" standalone="no"?>
<!-- Created with Inkscape (http://www.inkscape.org/) -->

<svg
   xmlns:dc="http://purl.org/dc/elements/1.1/"
   xmlns:cc="http://creativecommons.org/ns#"
   xmlns:rdf="http://www.w3.org/1999/02/22-rdf-syntax-ns#"
   xmlns:svg="http://www.w3.org/2000/svg"
   xmlns="http://www.w3.org/2000/svg"
   xmlns:sodipodi="http://sodipodi.sourceforge.net/DTD/sodipodi-0.dtd"
   xmlns:inkscape="http://www.inkscape.org/namespaces/inkscape"
   width="210mm"
   height="297mm"
   viewBox="0 0 744.09448819 1052.3622047"
   id="svg2"
   version="1.1"
   inkscape:version="0.91 r13725"
   sodipodi:docname="boiler.svg">
  <defs
     id="defs4" />
  <sodipodi:namedview
     id="base"
     pagecolor="#ffffff"
     bordercolor="#666666"
     borderopacity="1.0"
     inkscape:pageopacity="0.0"
     inkscape:pageshadow="2"
     inkscape:zoom="0.71"
     inkscape:cx="259.72837"
     inkscape:cy="518.65469"
     inkscape:document-units="px"
     inkscape:current-layer="layer1"
     showgrid="false"
     inkscape:window-width="1920"
     inkscape:window-height="1054"
     inkscape:window-x="0"
     inkscape:window-y="0"
     inkscape:window-maximized="1" />
  <metadata
     id="metadata7">
    <rdf:RDF>
      <cc:Work
         rdf:about="">
        <dc:format>image/svg+xml</dc:format>
        <dc:type
           rdf:resource="http://purl.org/dc/dcmitype/StillImage" />
        <dc:title></dc:title>
      </cc:Work>
    </rdf:RDF>
  </metadata>
  <g
     inkscape:label="Layer 1"
     inkscape:groupmode="layer"
     id="layer1">
    <path
       style="fill:#000000;fill-opacity:0.99215686"
       d="m 185.93006,280.23372 c -11.81226,0 -21.37399,10.25886 -21.83985,23.19141 -1.6e-4,0.004 1.7e-4,0.006 0,0.01 -0.0115,0.32429 -0.0215,0.64904 -0.0215,0.97657 l 0,163.49023 -4.07422,0 c -31.94675,0 -57.66601,25.71927 -57.66601,57.66602 l 0,162.13476 c 0,31.94675 25.71926,57.66406 57.66601,57.66406 l 8.53125,0 0,26.76172 59.1543,0 0,-26.76172 288.73242,0 0,26.76172 59.15625,0 0,-26.76172 8.53125,0 c 31.94675,0 57.66605,-25.71731 57.66601,-57.66406 l 0,-162.13476 c 0,-31.94675 -25.71926,-57.66602 -57.66601,-57.66602 l -14.89063,0 a 50.703895,47.887138 0 0 0 14.8379,-33.80273 50.703895,47.887138 0 0 0 -50.70508,-47.88672 50.703895,47.887138 0 0 0 -47.51953,31.35937 50.703895,47.887138 0 0 0 -47.52149,-31.35937 50.703895,47.887138 0 0 0 -50.70312,47.88672 50.703895,47.887138 0 0 0 14.83593,33.80273 l -195.13281,0 0,-139.31055 250.69336,0 c 12.11174,0 21.86328,-10.78513 21.86328,-24.17968 0,-13.39456 -9.75154,-24.17774 -21.86328,-24.17774 l -272.06445,0 z m 252.37109,122.30274 a 35.321819,31.561977 0 0 1 35.32227,31.5625 35.321819,31.561977 0 0 1 -35.32227,31.5625 35.321819,31.561977 0 0 1 -35.32226,-31.5625 35.321819,31.561977 0 0 1 35.32226,-31.5625 z m 95.04102,0 a 35.321819,31.561977 0 0 1 35.32226,31.5625 35.321819,31.561977 0 0 1 -35.32226,31.5625 35.321819,31.561977 0 0 1 -35.32227,-31.5625 35.321819,31.561977 0 0 1 35.32227,-31.5625 z m -109.32618,9.24414 -9.08007,8.67383 22.83789,21.8125 9.08008,-8.67188 -22.8379,-21.81445 z m 123.61133,0 -22.83593,21.81445 9.08007,8.67188 22.83594,-21.8125 -9.08008,-8.67383 z m -61.80664,38.92383 a 50.703895,47.887138 0 0 0 11.65039,17.19726 l -23.29687,0 a 50.703895,47.887138 0 0 0 11.64648,-17.19726 z m -236.08593,45.36718 29.52734,0 c 7.42647,0 13.4043,5.97783 13.4043,13.4043 l 0,194.31641 c 0,7.42647 -5.97783,13.40625 -13.4043,13.40625 l -29.52734,0 c -7.42648,0 -13.40624,-5.97978 -13.40626,-13.40625 l 0,-194.31641 c 0,-7.42647 5.97978,-13.4043 13.40626,-13.4043 z m 221.04101,0 29.52734,0 c 7.42648,0 13.40625,5.97783 13.40625,13.4043 l 0,194.31641 c 0,7.42647 -5.97977,13.40625 -13.40625,13.40625 l -29.52734,0 c -7.42647,0 -13.4043,-5.97978 -13.4043,-13.40625 l 0,-194.31641 c 0,-7.42647 5.97783,-13.4043 13.4043,-13.4043 z"
       id="rect4136"
       inkscape:connector-curvature="0" />
  </g>
</svg>
