<?xml version="1.0" encoding="UTF-8" standalone="no"?>
<!-- Created with Inkscape (http://www.inkscape.org/) -->

<svg
   xmlns:dc="http://purl.org/dc/elements/1.1/"
   xmlns:cc="http://creativecommons.org/ns#"
   xmlns:rdf="http://www.w3.org/1999/02/22-rdf-syntax-ns#"
   xmlns:svg="http://www.w3.org/2000/svg"
   xmlns="http://www.w3.org/2000/svg"
   xmlns:sodipodi="http://sodipodi.sourceforge.net/DTD/sodipodi-0.dtd"
   xmlns:inkscape="http://www.inkscape.org/namespaces/inkscape"
   id="svg2"
   viewBox="0 0 219.23632 124.97897"
   sodipodi:docname="compressor3.svg"
   version="1.1"
   inkscape:version="0.91 r13725"
   width="219.23633"
   height="124.97897">
  <sodipodi:namedview
     id="base"
     bordercolor="#666666"
     inkscape:pageshadow="2"
     inkscape:window-y="100"
     fit-margin-left="0"
     pagecolor="#ffffff"
     fit-margin-top="0"
     inkscape:window-maximized="0"
     inkscape:zoom="2.8284271"
     inkscape:window-x="273"
     inkscape:window-height="652"
     showgrid="false"
     borderopacity="1.0"
     inkscape:current-layer="layer1"
     inkscape:cx="59.572838"
     inkscape:cy="39.86224"
     fit-margin-right="0"
     fit-margin-bottom="0"
     inkscape:window-width="1217"
     inkscape:pageopacity="0.0"
     inkscape:document-units="px" />
  <defs
     id="defs4">
    <linearGradient
       id="linearGradient4607">
      <stop
         offset="0"
         style="stop-color:#ffffff"
         id="stop4609" />
      <stop
         offset="1"
         style="stop-color:#ffffff;stop-opacity:0"
         id="stop4611" />
    </linearGradient>
    <linearGradient
       id="linearGradient4659">
      <stop
         offset="0"
         style="stop-color:#ffffff;stop-opacity:0"
         id="stop4661" />
      <stop
         offset=".5"
         style="stop-color:#ffffff"
         id="stop4665" />
      <stop
         offset="1"
         style="stop-color:#ffffff;stop-opacity:0"
         id="stop4663" />
    </linearGradient>
    <linearGradient
       id="linearGradient4715">
      <stop
         offset="0"
         style="stop-color:#000080"
         id="stop4717" />
      <stop
         offset=".5"
         style="stop-color:#00ffff"
         id="stop4721" />
      <stop
         offset="1"
         style="stop-color:#000080"
         id="stop4719" />
    </linearGradient>
    <linearGradient
       id="linearGradient4761">
      <stop
         offset="0"
         style="stop-color:#0000ff"
         id="stop4763" />
      <stop
         offset="1"
         style="stop-color:#00007e"
         id="stop4765" />
    </linearGradient>
    <linearGradient
       id="linearGradient4823">
      <stop
         offset="0"
         style="stop-color:#000000"
         id="stop4825" />
      <stop
         offset="1"
         style="stop-color:#000204;stop-opacity:0"
         id="stop4827" />
    </linearGradient>
  </defs>
  <g
     inkscape:groupmode="layer"
     inkscape:label="Layer 1"
     id="layer1">
    <g
       id="g3378">
      <path
         id="rect9818"
         d="M8.80468 0.0C3.92753 0.0 0.0 3.89165 0.0 8.72683C0.0 8.72683 0.0 116.25017 0.0 116.25017C0.0 121.08535 3.92753 124.97898 8.80468 124.97898C8.80468 124.97898 210.43164 124.97898 210.43164 124.97898C215.3088 124.97898 219.23633 121.08535 219.23633 116.25017C219.23633 116.25017 219.23633 8.72683 219.23633 8.72683C219.23633 3.89165 215.3088 0.0 210.43164 0.0C210.43164 0.0 8.80468 0.0 8.80468 0.0C8.80468 0.0 8.80468 0.0 8.80468 0.0M137.64648 5.6799C137.64648 5.6799 176.26172 5.6799 176.26172 5.6799C177.98695 5.6799 179.37695 7.05566 179.37695 8.76585C179.37695 8.76585 179.37695 20.49811 179.37695 20.49811C179.37695 20.49811 191.55664 20.49811 191.55664 20.49811C201.3711 20.49811 209.27149 28.3323 209.27149 38.06292C209.27149 38.06292 209.27149 81.9727 209.27149 81.9727C209.27149 91.70331 201.3711 99.5375 191.55664 99.5375C191.55664 99.5375 169.41016 99.5375 169.41016 99.5375C169.41016 99.5375 169.41016 116.82616 169.41016 116.82616C169.41016 118.19501 168.3001 119.2971 166.91992 119.2971C166.91992 119.2971 156.95508 119.2971 156.95508 119.2971C155.5749 119.2971 154.46289 118.19501 154.46289 116.82616C154.46289 116.82616 154.46289 99.5375 154.46289 99.5375C154.46289 99.5375 64.77539 99.5375 64.77539 99.5375C64.77539 99.5375 64.77539 116.82616 64.77539 116.82616C64.77539 118.19501 63.66533 119.2971 62.28515 119.2971C62.28515 119.2971 52.32031 119.2971 52.32031 119.2971C50.94013 119.2971 49.82812 118.19501 49.82812 116.82616C49.82812 116.82616 49.82812 99.5375 49.82812 99.5375C49.82812 99.5375 27.68359 99.5375 27.68359 99.5375C17.86912 99.5375 9.96679 91.70331 9.96679 81.9727C9.96679 81.9727 9.96679 38.06292 9.96679 38.06292C9.96679 28.3323 17.86912 20.49811 27.68359 20.49811C27.68359 20.49811 44.8457 20.49811 44.8457 20.49811C44.8457 20.49811 44.8457 17.67595 44.8457 17.67595C44.8457 16.50322 45.79746 15.55871 46.98047 15.55871C46.98047 15.55871 57.6582 15.55871 57.6582 15.55871C58.84121 15.55871 59.79297 16.50322 59.79297 17.67595C59.79297 17.67595 59.79297 20.49811 59.79297 20.49811C59.79297 20.49811 99.65429 20.49811 99.65429 20.49811C99.65429 20.49811 99.65429 17.67595 99.65429 17.67595C99.65429 16.50322 100.60606 15.55871 101.78906 15.55871C101.78906 15.55871 112.46679 15.55871 112.46679 15.55871C113.6498 15.55871 114.60156 16.50322 114.60156 17.67595C114.60156 17.67595 114.60156 20.49811 114.60156 20.49811C114.60156 20.49811 134.5332 20.49811 134.5332 20.49811C134.5332 20.49811 134.5332 8.76585 134.5332 8.76585C134.5332 7.05566 135.92125 5.6799 137.64648 5.6799C137.64648 5.6799 137.64648 5.6799 137.64648 5.6799"
         style="fill:#ff0000;fill-opacity:1" />
      <path
         style="fill:#000000;fill-opacity:1;fill-rule:evenodd"
         d="M137.64551 5.68071C135.92028 5.68071 134.53222 7.05647 134.53222 8.76667C134.53222 8.76667 134.53222 20.49893 134.53222 20.49893C134.53222 20.49893 114.60058 20.49893 114.60058 20.49893C114.60058 20.49893 114.60058 17.67676 114.60058 17.67676C114.60058 16.50403 113.64883 15.55952 112.46582 15.55952C112.46582 15.55952 101.78808 15.55952 101.78808 15.55952C100.60508 15.55952 99.65332 16.50403 99.65332 17.67676C99.65332 17.67676 99.65332 20.49893 99.65332 20.49893C99.65332 20.49893 59.79199 20.49893 59.79199 20.49893C59.79199 20.49893 59.79199 17.67676 59.79199 17.67676C59.79199 16.50403 58.84023 15.55952 57.65722 15.55952C57.65722 15.55952 46.97949 15.55952 46.97949 15.55952C45.79648 15.55952 44.84472 16.50403 44.84472 17.67676C44.84472 17.67676 44.84472 20.49893 44.84472 20.49893C44.84472 20.49893 27.68262 20.49893 27.68262 20.49893C17.86815 20.49893 9.96582 28.33312 9.96582 38.06373C9.96582 38.06373 9.96582 81.97351 9.96582 81.97351C9.96582 91.70413 17.86815 99.53832 27.68262 99.53832C27.68262 99.53832 49.82715 99.53832 49.82715 99.53832C49.82715 99.53832 49.82715 116.82698 49.82715 116.82698C49.82715 118.19583 50.93915 119.29792 52.31934 119.29792C52.31934 119.29792 62.28418 119.29792 62.28418 119.29792C63.66436 119.29792 64.77441 118.19583 64.77441 116.82698C64.77441 116.82698 64.77441 99.53832 64.77441 99.53832C64.77441 99.53832 154.46191 99.53832 154.46191 99.53832C154.46191 99.53832 154.46191 116.82698 154.46191 116.82698C154.46191 118.19583 155.57392 119.29792 156.9541 119.29792C156.9541 119.29792 166.91894 119.29792 166.91894 119.29792C168.29912 119.29792 169.40918 118.19583 169.40918 116.82698C169.40918 116.82698 169.40918 99.53832 169.40918 99.53832C169.40918 99.53832 191.55566 99.53832 191.55566 99.53832C201.37012 99.53832 209.27051 91.70413 209.27051 81.97351C209.27051 81.97351 209.27051 38.06373 209.27051 38.06373C209.27051 28.33312 201.37012 20.49893 191.55566 20.49893C191.55566 20.49893 179.37598 20.49893 179.37598 20.49893C179.37598 20.49893 179.37598 8.76667 179.37598 8.76667C179.37598 7.05647 177.98597 5.68071 176.26074 5.68071C176.26074 5.68071 137.64551 5.68071 137.64551 5.68071C137.64551 5.68071 137.64551 5.68071 137.64551 5.68071"
         id="rect3751" />
    </g>
  </g>
  <metadata
     id="metadata214">
    <rdf:RDF>
      <cc:Work>
        <dc:format>image/svg+xml</dc:format>
        <dc:type
           rdf:resource="http://purl.org/dc/dcmitype/StillImage" />
        <cc:license
           rdf:resource="http://creativecommons.org/publicdomain/zero/1.0/" />
        <dc:publisher>
          <cc:Agent
             rdf:about="http://openclipart.org/">
            <dc:title>Openclipart</dc:title>
          </cc:Agent>
        </dc:publisher>
        <dc:title />
      </cc:Work>
      <cc:License
         rdf:about="http://creativecommons.org/publicdomain/zero/1.0/">
        <cc:permits
           rdf:resource="http://creativecommons.org/ns#Reproduction" />
        <cc:permits
           rdf:resource="http://creativecommons.org/ns#Distribution" />
        <cc:permits
           rdf:resource="http://creativecommons.org/ns#DerivativeWorks" />
      </cc:License>
    </rdf:RDF>
  </metadata>
</svg>
