<?xml version="1.0" encoding="UTF-8" standalone="no"?>
<!-- Generator: Adobe Illustrator 16.0.0, SVG Export Plug-In . SVG Version: 6.00 Build 0)  -->

<svg
   xmlns:dc="http://purl.org/dc/elements/1.1/"
   xmlns:cc="http://creativecommons.org/ns#"
   xmlns:rdf="http://www.w3.org/1999/02/22-rdf-syntax-ns#"
   xmlns:svg="http://www.w3.org/2000/svg"
   xmlns="http://www.w3.org/2000/svg"
   xmlns:sodipodi="http://sodipodi.sourceforge.net/DTD/sodipodi-0.dtd"
   xmlns:inkscape="http://www.inkscape.org/namespaces/inkscape"
   version="1.1"
   id="Capa_1"
   x="0px"
   y="0px"
   width="925.58801"
   height="676"
   viewBox="0 0 925.588 675.99999"
   xml:space="preserve"
   inkscape:version="0.91 r13725"
   sodipodi:docname="compressor.svg"><metadata
     id="metadata3355"><rdf:RDF><cc:Work
         rdf:about=""><dc:format>image/svg+xml</dc:format><dc:type
           rdf:resource="http://purl.org/dc/dcmitype/StillImage" /><dc:title></dc:title></cc:Work></rdf:RDF></metadata><defs
     id="defs3353" /><sodipodi:namedview
     pagecolor="#ffffff"
     bordercolor="#666666"
     borderopacity="1"
     objecttolerance="10"
     gridtolerance="10"
     guidetolerance="10"
     inkscape:pageopacity="0"
     inkscape:pageshadow="2"
     inkscape:window-width="1920"
     inkscape:window-height="1054"
     id="namedview3351"
     showgrid="false"
     fit-margin-top="0"
     fit-margin-left="0"
     fit-margin-right="0"
     fit-margin-bottom="0"
     inkscape:zoom="0.93994303"
     inkscape:cx="462.79401"
     inkscape:cy="450.53637"
     inkscape:window-x="0"
     inkscape:window-y="0"
     inkscape:window-maximized="1"
     inkscape:current-layer="Capa_1" /><g
     id="g3337"
     transform="translate(0,-124.794)"><g
       id="g3339"><path
         d="m 612.744,273.408 251.791,0 c 9.541,0 17.277,-7.736 17.277,-17.278 l 0,-46.801 c 0,-9.542 -7.736,-17.278 -17.277,-17.278 l -282.101,0 c 4.67,9.079 9.082,18.769 13.207,29.097 6.443,16.135 12.158,33.64 17.103,52.26 z"
         id="path3341"
         inkscape:connector-curvature="0" /><path
         d="m 925.588,362.705 c 0,-9.542 -7.736,-17.278 -17.277,-17.278 l -281.071,0 c 3.758,26.027 6.252,53.305 7.404,81.357 l 273.664,0 c 9.543,0 17.279,-7.736 17.279,-17.278 l 0,-46.801 10e-4,0 z"
         id="path3343"
         inkscape:connector-curvature="0" /><path
         d="m 925.588,562.883 0,-46.801 c 0,-9.543 -7.736,-17.278 -17.277,-17.278 l -273.666,0 c -1.15,28.053 -3.646,55.331 -7.404,81.357 l 281.07,0 c 9.541,0 17.277,-7.736 17.277,-17.278 z"
         id="path3345"
         inkscape:connector-curvature="0" /><path
         d="m 881.814,716.259 0,-46.801 c 0,-9.542 -7.736,-17.278 -17.279,-17.278 l -251.791,0 c -4.945,18.62 -10.66,36.125 -17.104,52.261 -4.125,10.328 -8.537,20.019 -13.207,29.098 l 282.102,0 c 9.543,-10e-4 17.279,-7.737 17.279,-17.28 z"
         id="path3347"
         inkscape:connector-curvature="0" /><path
         d="m 458.533,800.794 c 39.536,0 71.35,-25.774 95.446,-67.256 13.301,-22.896 24.246,-50.582 32.842,-81.357 6.303,-22.565 11.344,-46.794 15.117,-72.019 3.934,-26.29 6.494,-53.66 7.68,-81.357 1.025,-23.926 1.025,-48.094 0,-72.02 -1.186,-27.697 -3.746,-55.068 -7.68,-81.357 -3.773,-25.225 -8.812,-49.453 -15.117,-72.019 C 578.225,242.633 567.28,214.948 553.979,192.052 529.883,150.568 498.067,124.794 458.533,124.794 256.061,124.794 0,276.122 0,462.794 c 0,186.672 256.061,338 458.533,338 z"
         id="path3349"
         inkscape:connector-curvature="0" /></g></g></svg>