<?xml version="1.0" encoding="UTF-8" standalone="no"?>
<!-- Generator: Adobe Illustrator 16.0.0, SVG Export Plug-In . SVG Version: 6.00 Build 0)  -->

<svg
   xmlns:dc="http://purl.org/dc/elements/1.1/"
   xmlns:cc="http://creativecommons.org/ns#"
   xmlns:rdf="http://www.w3.org/1999/02/22-rdf-syntax-ns#"
   xmlns:svg="http://www.w3.org/2000/svg"
   xmlns="http://www.w3.org/2000/svg"
   xmlns:sodipodi="http://sodipodi.sourceforge.net/DTD/sodipodi-0.dtd"
   xmlns:inkscape="http://www.inkscape.org/namespaces/inkscape"
   version="1.1"
   id="Capa_1"
   x="0px"
   y="0px"
   width="1018.1484"
   height="743.59961"
   viewBox="0 0 1018.1484 743.59961"
   xml:space="preserve"
   inkscape:version="0.91 r13725"
   sodipodi:docname="compressor2.svg"><metadata
     id="metadata3355"><rdf:RDF><cc:Work
         rdf:about=""><dc:format>image/svg+xml</dc:format><dc:type
           rdf:resource="http://purl.org/dc/dcmitype/StillImage" /><dc:title></dc:title></cc:Work></rdf:RDF></metadata><defs
     id="defs3353" /><sodipodi:namedview
     pagecolor="#ffffff"
     bordercolor="#666666"
     borderopacity="1"
     objecttolerance="10"
     gridtolerance="10"
     guidetolerance="10"
     inkscape:pageopacity="0"
     inkscape:pageshadow="2"
     inkscape:window-width="1347"
     inkscape:window-height="845"
     id="namedview3351"
     showgrid="false"
     fit-margin-top="0"
     fit-margin-left="0"
     fit-margin-right="0"
     fit-margin-bottom="0"
     inkscape:zoom="0.33232005"
     inkscape:cx="75.757056"
     inkscape:cy="348.54289"
     inkscape:window-x="318"
     inkscape:window-y="25"
     inkscape:window-maximized="0"
     inkscape:current-layer="Capa_1" /><path
     id="path3349"
     d="m 504.81327,709.79944 c 39.536,0 71.35,-25.774 95.446,-67.256 13.301,-22.896 24.246,-50.582 32.842,-81.357 6.303,-22.565 11.344,-46.794 15.117,-72.019 3.934,-26.29 6.494,-53.66 7.68,-81.357 1.025,-23.926 1.025,-48.094 0,-72.02 -1.186,-27.697 -3.746,-55.068 -7.68,-81.357 -3.773,-25.225 -8.812,-49.453 -15.117,-72.019 -8.596,-30.776 -19.541,-58.461 -32.842,-81.357 -24.096,-41.483996 -55.912,-67.257996 -95.446,-67.257996 -202.472,0 -458.533007,151.327996 -458.533007,337.999996 0,186.672 256.061007,338 458.533007,338 z m 423.281,-84.535 0,-46.801 c 0,-9.542 -7.736,-17.278 -17.279,-17.278 l -251.791,0 c -4.945,18.62 -10.66,36.125 -17.104,52.261 -4.125,10.328 -8.537,20.019 -13.207,29.098 l 282.102,0 c 9.543,-10e-4 17.279,-7.737 17.279,-17.28 z m 43.774,-153.376 0,-46.801 c 0,-9.543 -7.736,-17.278 -17.277,-17.278 l -273.666,0 c -1.15,28.053 -3.646,55.331 -7.404,81.357 l 281.07,0 c 9.541,0 17.277,-7.736 17.277,-17.278 z m 0,-200.178 c 0,-9.542 -7.736,-17.278 -17.277,-17.278 l -281.071,0 c 3.758,26.027 6.252,53.305 7.404,81.357 l 273.664,0 c 9.543,0 17.279,-7.736 17.279,-17.278 l 0,-46.801 0.001,0 z m -312.844,-89.297 251.791,0 c 9.541,0 17.277,-7.736 17.277,-17.278 l 0,-46.801 c 0,-9.542 -7.736,-17.278 -17.277,-17.278 l -282.101,0 c 4.67,9.079 9.082,18.769 13.207,29.097 6.443,16.135 12.158,33.64 17.103,52.26 z"
     inkscape:connector-curvature="0" /><path
     style="fill:#ff0000;fill-opacity:1"
     d="m 0,0 0,743.59961 1018.1484,0 L 1018.1484,0 0,0 Z m 504.8125,33.798828 c 39.534,0 71.35127,25.773823 95.44727,67.257812 13.30099,22.896 24.24578,50.58142 32.84179,81.35742 6.30499,22.566 11.34419,46.79453 15.11719,72.01953 3.934,26.289 6.49369,53.66043 7.67969,81.35743 1.025,23.926 1.025,48.09353 0,72.01953 -1.186,27.697 -3.74569,55.06742 -7.67969,81.35742 -3.77299,25.22502 -8.8142,49.45453 -15.11719,72.01953 -8.59601,30.775 -19.54079,58.45947 -32.84179,81.35547 -24.096,41.482 -55.91127,67.25586 -95.44727,67.25586 -202.47199,0 -458.53125,-151.32799 -458.53125,-338 0,-186.672 256.05926,-338.000002 458.53125,-338.000002 z m 123.90235,67.257812 282.0996,0 c 9.54101,0 17.27735,7.73534 17.27735,17.27735 l 0,46.80078 c 0,9.542 -7.73634,17.27929 -17.27735,17.27929 l -251.79101,0 c -4.945,-18.62 -10.65856,-36.12476 -17.10156,-52.25976 -4.125,-10.328 -8.53703,-20.01866 -13.20703,-29.09766 z m 44.80468,153.375 281.07227,0 c 9.541,0 17.27734,7.7373 17.27734,17.2793 l -0.002,0 0,46.80078 c 0,9.542 -7.7363,17.27734 -17.2793,17.27734 l -273.66406,0 c -1.152,-28.052 -3.64629,-55.33042 -7.4043,-81.35742 z m 7.40625,153.37891 273.66602,0 c 9.541,0 17.27734,7.73434 17.27734,17.27734 l 0,46.80078 c 0,9.542 -7.73634,17.27735 -17.27734,17.27735 l -281.07031,0 c 3.758,-26.026 6.25429,-53.30247 7.40429,-81.35547 z m -21.90234,153.375 251.79101,0 c 9.54301,0 17.2793,7.73534 17.2793,17.27734 l 0,46.80078 c 0,9.543 -7.73629,17.28025 -17.2793,17.28125 l -282.10156,0 c 4.67,-9.079 9.08203,-18.76965 13.20703,-29.09765 6.444,-16.136 12.15852,-33.64172 17.10352,-52.26172 z"
     id="rect4674"
     inkscape:connector-curvature="0" /></svg>