<?xml version="1.0" encoding="UTF-8" standalone="no"?>
<!-- Generator: Adobe Illustrator 19.0.0, SVG Export Plug-In . SVG Version: 6.00 Build 0)  -->

<svg
   xmlns:dc="http://purl.org/dc/elements/1.1/"
   xmlns:cc="http://creativecommons.org/ns#"
   xmlns:rdf="http://www.w3.org/1999/02/22-rdf-syntax-ns#"
   xmlns:svg="http://www.w3.org/2000/svg"
   xmlns="http://www.w3.org/2000/svg"
   xmlns:sodipodi="http://sodipodi.sourceforge.net/DTD/sodipodi-0.dtd"
   xmlns:inkscape="http://www.inkscape.org/namespaces/inkscape"
   version="1.1"
   id="Capa_1"
   x="0px"
   y="0px"
   viewBox="0 0 512.00216 403.99997"
   xml:space="preserve"
   inkscape:version="0.91 r13725"
   sodipodi:docname="hcc_remover.svg"
   width="144.4984mm"
   height="114.01778mm"><metadata
     id="metadata3518"><rdf:RDF><cc:Work
         rdf:about=""><dc:format>image/svg+xml</dc:format><dc:type
           rdf:resource="http://purl.org/dc/dcmitype/StillImage" /><dc:title></dc:title></cc:Work></rdf:RDF></metadata><defs
     id="defs3516" /><sodipodi:namedview
     pagecolor="#ffffff"
     bordercolor="#666666"
     borderopacity="1"
     objecttolerance="10"
     gridtolerance="10"
     guidetolerance="10"
     inkscape:pageopacity="0"
     inkscape:pageshadow="2"
     inkscape:window-width="1920"
     inkscape:window-height="1054"
     id="namedview3514"
     showgrid="false"
     units="mm"
     fit-margin-top="0"
     fit-margin-left="0"
     fit-margin-right="0"
     fit-margin-bottom="0"
     inkscape:zoom="1.6992121"
     inkscape:cx="256.00121"
     inkscape:cy="201.99997"
     inkscape:window-x="0"
     inkscape:window-y="0"
     inkscape:window-maximized="1"
     inkscape:current-layer="Capa_1" /><g
     id="g3448"
     transform="translate(1.9987991e-4,-54.001)"><g
       id="g3450"><path
         d="m 502.002,54.001 -448,0 c -5.523,0 -10,4.477 -10,10 l 0,49.987 c 0,5.523 4.477,10 10,10 5.523,0 10,-4.477 10,-10 l 0,-39.987 61,0 0,33 c 0,5.523 4.477,10 10,10 5.523,0 10,-4.477 10,-10 l 0,-33 41,0 0,33 c 0,5.523 4.477,10 10,10 5.523,0 10,-4.477 10,-10 l 0,-33 41,0 0,331.259 c 0,5.523 4.477,10 10,10 5.523,0 10,-4.477 10,-10 l 0,-331.259 41,0 0,288.741 c 0,5.523 4.477,10 10,10 5.523,0 10,-4.477 10,-10 l 0,-288.741 41,0 0,331.259 c 0,5.523 4.477,10 10,10 5.523,0 10,-4.477 10,-10 l 0,-331.259 42,0 0,288.741 c 0,5.523 4.477,10 10,10 5.523,0 10,-4.477 10,-10 l 0,-288.741 41,0 0,364 -286,0 0,-33.259 c 0,-5.523 -4.477,-10 -10,-10 -5.523,0 -10,4.477 -10,10 l 0,33.259 -41,0 0,-33.259 c 0,-5.523 -4.477,-10 -10,-10 -5.523,0 -10,4.477 -10,10 l 0,33.259 -61,0 0,-40.012 c 0,-5.523 -4.477,-10 -10,-10 -5.523,0 -10,4.477 -10,10 l 0,50.012 c 0,5.523 4.477,10 10,10 l 448,0 c 5.523,0 10,-4.477 10,-10 l 0,-384 c 0,-5.523 -4.477,-10 -10,-10 z"
         id="path3452"
         inkscape:connector-curvature="0" /></g></g><g
     id="g3454"
     transform="translate(1.9987991e-4,-54.001)"><g
       id="g3456"><path
         d="m 219.488,248.923 -20.105,-20.106 c -3.905,-3.905 -10.237,-3.905 -14.142,0 -3.905,3.905 -3.906,10.237 0,14.142 l 3.036,3.037 -3.504,0 c -0.047,0 -0.094,0 -0.142,0 -10.22,0 -20.418,2.45 -29.499,7.089 -12.771,6.525 -28.023,6.525 -40.794,0 -18.47,-9.435 -40.522,-9.435 -58.992,0 -12.771,6.524 -28.022,6.524 -40.794,0 -4.92,-2.513 -10.942,-0.563 -13.455,4.356 -2.513,4.918 -0.562,10.942 4.356,13.455 18.47,9.435 40.522,9.434 58.992,0 12.771,-6.524 28.023,-6.524 40.795,0 9.235,4.717 19.365,7.076 29.496,7.076 10.13,0 20.261,-2.359 29.496,-7.076 6.306,-3.221 13.387,-4.898 20.52,-4.899 l 3.523,0 -3.033,3.033 c -3.906,3.903 -3.906,10.235 -10e-4,14.14 1.953,1.953 4.512,2.929 7.071,2.929 2.559,0 5.119,-0.976 7.071,-2.929 l 20.105,-20.105 c 3.905,-3.905 3.905,-10.237 0,-14.142 z"
         id="path3458"
         inkscape:connector-curvature="0" /></g></g><g
     id="g3460"
     transform="translate(1.9987991e-4,-54.001)"><g
       id="g3462"><path
         d="m 219.49,329.216 -20.197,-20.197 c -3.905,-3.906 -10.237,-3.905 -14.142,0 -3.905,3.905 -3.906,10.237 0,14.142 l 3.128,3.128 -3.504,0 c -0.047,0 -0.094,0 -0.142,0 -10.22,0 -20.418,2.45 -29.499,7.089 -12.771,6.525 -28.023,6.524 -40.794,0 -18.47,-9.435 -40.522,-9.435 -58.992,0 -12.771,6.524 -28.022,6.524 -40.794,0 -4.92,-2.514 -10.942,-0.563 -13.455,4.356 -2.513,4.918 -0.562,10.942 4.356,13.455 18.47,9.435 40.522,9.434 58.992,0 12.769,-6.527 28.021,-6.527 40.793,-0.002 9.235,4.717 19.365,7.076 29.496,7.076 10.13,0 20.261,-2.359 29.496,-7.076 6.306,-3.221 13.387,-4.885 20.52,-4.899 l 3.523,0 -3.124,3.124 c -3.905,3.905 -3.905,10.237 0,14.143 1.953,1.953 4.512,2.929 7.071,2.929 2.559,0 5.119,-0.976 7.071,-2.929 l 20.197,-20.197 c 3.905,-3.905 3.905,-10.237 0,-14.142 z"
         id="path3464"
         inkscape:connector-curvature="0" /></g></g><g
     id="g3466"
     transform="translate(1.9987991e-4,-54.001)"><g
       id="g3468"><path
         d="m 219.489,168.222 -19.608,-19.608 c -3.905,-3.905 -10.237,-3.905 -14.143,0 -3.906,3.905 -3.905,10.237 0,14.143 l 2.539,2.539 -3.504,0 c -0.047,0 -0.094,0 -0.141,0 -10.221,0 -20.419,2.45 -29.5,7.088 -12.772,6.525 -28.023,6.524 -40.794,0 -18.469,-9.435 -40.522,-9.435 -58.992,0 -12.772,6.524 -28.021,6.525 -40.794,0 -4.92,-2.513 -10.942,-0.563 -13.455,4.356 -2.513,4.919 -0.563,10.94 4.356,13.453 18.469,9.435 40.521,9.436 58.992,0 12.772,-6.524 28.023,-6.524 40.795,0 9.236,4.718 19.364,7.077 29.496,7.077 10.129,-0.001 20.262,-2.359 29.496,-7.077 6.276,-3.206 13.327,-4.899 20.421,-4.899 0.033,0 0.066,0 0.099,0 l 3.523,0 -2.536,2.536 c -3.905,3.905 -3.905,10.237 0,14.142 1.953,1.953 4.512,2.929 7.071,2.929 2.559,0 5.119,-0.977 7.071,-2.929 l 19.608,-19.608 c 3.905,-3.905 3.905,-10.237 0,-14.142 z"
         id="path3470"
         inkscape:connector-curvature="0" /></g></g><g
     id="g3472"
     transform="translate(1.9987991e-4,-54.001)"><g
       id="g3474"><path
         d="m 448.072,398.191 c -1.86,-1.86 -4.44,-2.93 -7.07,-2.93 -2.63,0 -5.21,1.07 -7.07,2.93 -1.86,1.86 -2.93,4.44 -2.93,7.07 0,2.63 1.07,5.21 2.93,7.07 1.86,1.86 4.44,2.93 7.07,2.93 2.63,0 5.21,-1.07 7.07,-2.93 1.86,-1.86 2.93,-4.44 2.93,-7.07 0,-2.63 -1.07,-5.21 -2.93,-7.07 z"
         id="path3476"
         inkscape:connector-curvature="0" /></g></g><g
     id="g3478"
     transform="translate(1.9987991e-4,-54.001)"><g
       id="g3480"><path
         d="m 325.072,398.191 c -1.86,-1.86 -4.44,-2.93 -7.07,-2.93 -2.63,0 -5.21,1.07 -7.07,2.93 -1.86,1.86 -2.93,4.44 -2.93,7.07 0,2.63 1.07,5.21 2.93,7.07 1.86,1.86 4.44,2.93 7.07,2.93 2.63,0 5.21,-1.07 7.07,-2.93 1.86,-1.86 2.93,-4.44 2.93,-7.07 0,-2.63 -1.07,-5.21 -2.93,-7.07 z"
         id="path3482"
         inkscape:connector-curvature="0" /></g></g><g
     id="g3484"
     transform="translate(1.9987991e-4,-54.001)" /><g
     id="g3486"
     transform="translate(1.9987991e-4,-54.001)" /><g
     id="g3488"
     transform="translate(1.9987991e-4,-54.001)" /><g
     id="g3490"
     transform="translate(1.9987991e-4,-54.001)" /><g
     id="g3492"
     transform="translate(1.9987991e-4,-54.001)" /><g
     id="g3494"
     transform="translate(1.9987991e-4,-54.001)" /><g
     id="g3496"
     transform="translate(1.9987991e-4,-54.001)" /><g
     id="g3498"
     transform="translate(1.9987991e-4,-54.001)" /><g
     id="g3500"
     transform="translate(1.9987991e-4,-54.001)" /><g
     id="g3502"
     transform="translate(1.9987991e-4,-54.001)" /><g
     id="g3504"
     transform="translate(1.9987991e-4,-54.001)" /><g
     id="g3506"
     transform="translate(1.9987991e-4,-54.001)" /><g
     id="g3508"
     transform="translate(1.9987991e-4,-54.001)" /><g
     id="g3510"
     transform="translate(1.9987991e-4,-54.001)" /><g
     id="g3512"
     transform="translate(1.9987991e-4,-54.001)" /></svg>