<?xml version="1.0" encoding="UTF-8" standalone="no"?>
<svg
   xmlns:dc="http://purl.org/dc/elements/1.1/"
   xmlns:cc="http://creativecommons.org/ns#"
   xmlns:rdf="http://www.w3.org/1999/02/22-rdf-syntax-ns#"
   xmlns:svg="http://www.w3.org/2000/svg"
   xmlns="http://www.w3.org/2000/svg"
   xmlns:sodipodi="http://sodipodi.sourceforge.net/DTD/sodipodi-0.dtd"
   xmlns:inkscape="http://www.inkscape.org/namespaces/inkscape"
   version="1.1"
   viewBox="0 0 296.99984 275.633"
   enable-background="new 0 0 297 297"
   id="svg3392"
   inkscape:version="0.91 r13725"
   sodipodi:docname="reliquefier.svg"
   width="83.819954mm"
   height="77.789757mm">
  <metadata
     id="metadata3408">
    <rdf:RDF>
      <cc:Work
         rdf:about="">
        <dc:format>image/svg+xml</dc:format>
        <dc:type
           rdf:resource="http://purl.org/dc/dcmitype/StillImage" />
        <dc:title></dc:title>
      </cc:Work>
    </rdf:RDF>
  </metadata>
  <defs
     id="defs3406" />
  <sodipodi:namedview
     pagecolor="#ffffff"
     bordercolor="#666666"
     borderopacity="1"
     objecttolerance="10"
     gridtolerance="10"
     guidetolerance="10"
     inkscape:pageopacity="0"
     inkscape:pageshadow="2"
     inkscape:window-width="1920"
     inkscape:window-height="1054"
     id="namedview3404"
     showgrid="false"
     units="mm"
     fit-margin-top="0"
     fit-margin-left="0"
     fit-margin-right="0"
     fit-margin-bottom="0"
     inkscape:zoom="1.0356614"
     inkscape:cx="253.72712"
     inkscape:cy="119.02533"
     inkscape:window-x="0"
     inkscape:window-y="0"
     inkscape:window-maximized="1"
     inkscape:current-layer="svg3392" />
  <g
     id="g3394"
     transform="translate(-1.7480526e-4,-10.683)">
    <path
       d="m 159.211,246.527 c 37.983,0 68.885,-30.901 68.885,-68.884 0,-41.201 -54.224,-114.688 -60.406,-122.932 -2.002,-2.669 -5.143,-4.239 -8.479,-4.239 -3.335,0 -6.475,1.57 -8.477,4.239 -6.183,8.244 -60.406,81.73 -60.406,122.932 -0.001,37.983 30.9,68.884 68.883,68.884 z m -23.315,-77.362 c 4.683,0 8.479,3.796 8.479,8.479 0,8.181 6.655,14.836 14.836,14.836 4.683,0 8.479,3.797 8.479,8.479 0,4.682 -3.796,8.478 -8.479,8.478 -17.53,0 -31.792,-14.262 -31.792,-31.792 0,-4.684 3.795,-8.48 8.477,-8.48 z"
       id="path3396"
       inkscape:connector-curvature="0" />
    <path
       d="m 159.211,10.683 c -5.851,0 -10.597,4.745 -10.597,10.598 0,5.852 4.745,10.598 10.597,10.598 64.291,0 116.595,52.316 116.595,116.621 0,64.305 -52.304,116.621 -116.595,116.621 -59.694,0 -109.046,-45.107 -115.798,-103.032 l 4.619,4.057 c 4.398,3.865 11.095,3.43 14.955,-0.968 3.864,-4.397 3.431,-11.094 -0.967,-14.957 l -23.784,-20.89 c -2.126,-1.868 -4.912,-2.812 -7.732,-2.61 -2.823,0.198 -5.45,1.516 -7.295,3.661 L 2.564,154.378 c -3.817,4.438 -3.314,11.128 1.122,14.945 2.001,1.722 4.46,2.564 6.906,2.564 2.98,0 5.942,-1.25 8.039,-3.686 l 3.661,-4.256 c 7.7,68.747 66.162,122.371 136.918,122.371 C 235.188,286.316 297,224.492 297,148.5 297,72.508 235.188,10.683 159.211,10.683 Z"
       id="path3398"
       inkscape:connector-curvature="0" />
    <path
       d="m 106.753,31.927 17.486,0 c 5.852,0 10.598,-4.745 10.598,-10.598 0,-5.853 -4.745,-10.598 -10.598,-10.598 l -17.486,0 c -5.852,0 -10.597,4.745 -10.597,10.598 0,5.853 4.745,10.598 10.597,10.598 z"
       id="path3400"
       inkscape:connector-curvature="0" />
    <path
       d="m 71.778,31.927 c 2.798,0 5.521,-1.134 7.492,-3.106 1.982,-1.981 3.106,-4.705 3.106,-7.492 0,-2.787 -1.124,-5.522 -3.106,-7.493 -1.971,-1.971 -4.705,-3.104 -7.492,-3.104 -2.787,0 -5.522,1.134 -7.493,3.104 -1.971,1.972 -3.104,4.706 -3.104,7.493 0,2.787 1.134,5.521 3.104,7.492 1.971,1.972 4.706,3.106 7.493,3.106 z"
       id="path3402"
       inkscape:connector-curvature="0" />
  </g>
</svg>
