<?xml version="1.0" encoding="UTF-8" standalone="no"?>
<!-- Svg Vector Icons : http://www.onlinewebfonts.com/icon -->

<svg
   xmlns:dc="http://purl.org/dc/elements/1.1/"
   xmlns:cc="http://creativecommons.org/ns#"
   xmlns:rdf="http://www.w3.org/1999/02/22-rdf-syntax-ns#"
   xmlns:svg="http://www.w3.org/2000/svg"
   xmlns="http://www.w3.org/2000/svg"
   xmlns:sodipodi="http://sodipodi.sourceforge.net/DTD/sodipodi-0.dtd"
   xmlns:inkscape="http://www.inkscape.org/namespaces/inkscape"
   version="1.1"
   x="0px"
   y="0px"
   viewBox="0 0 999.9999 1000"
   enable-background="new 0 0 1000 1000"
   xml:space="preserve"
   id="svg3336"
   inkscape:version="0.91 r13725"
   sodipodi:docname="valve2.svg"
   width="282.2222mm"
   height="282.22223mm"><sodipodi:namedview
     pagecolor="#ffffff"
     bordercolor="#666666"
     borderopacity="1"
     objecttolerance="10"
     gridtolerance="10"
     guidetolerance="10"
     inkscape:pageopacity="0"
     inkscape:pageshadow="2"
     inkscape:window-width="1920"
     inkscape:window-height="1054"
     id="namedview3384"
     showgrid="false"
     units="mm"
     fit-margin-top="0"
     fit-margin-left="0"
     fit-margin-right="0"
     fit-margin-bottom="0"
     inkscape:zoom="0.435"
     inkscape:cx="316.57464"
     inkscape:cy="439.49706"
     inkscape:window-x="0"
     inkscape:window-y="0"
     inkscape:window-maximized="1"
     inkscape:current-layer="svg3336" /><defs
     id="defs3386" /><metadata
     id="metadata3338"> Svg Vector Icons : http://www.onlinewebfonts.com/icon <rdf:RDF><cc:Work
     rdf:about=""><dc:format>image/svg+xml</dc:format><dc:type
       rdf:resource="http://purl.org/dc/dcmitype/StillImage" /><dc:title></dc:title></cc:Work></rdf:RDF></metadata><g
     id="g3505"><path
       id="rect3358"
       d="M2.72885171758 0.000309999999985C2.72885171758 0.000309999999985 997.270980518 0.000309999999985 997.270980518 0.000309999999985C998.782770518 0.000309999999985 999.999840518 1.46521 999.999840518 3.28485C999.999840518 3.28485 999.999840518 996.71535 999.999840518 996.71535C999.999840518 998.53498 998.782770518 999.99989 997.270980518 999.99989C997.270980518 999.99989 2.72885171758 999.99989 2.72885171758 999.99989C1.21706791758 999.99989 -2.98760074026e-14 998.53498 -2.98760074026e-14 996.71535C-2.98760074026e-14 996.71535 -2.98760074026e-14 3.28485 -2.98760074026e-14 3.28485C-2.98760074026e-14 1.46521 1.21706791758 0.000310000000042 2.72885171758 0.000310000000042C2.72885171758 0.000310000000042 2.72885171758 0.000310000000042 2.72885171758 0.000310000000042"
       style="fill:#ff0000;fill-opacity:1" /><path
       id="path3346"
       d="M475.101570518 0.0C475.101570518 0.0 475.101570518 21.12409 475.101570518 21.12409C437.958720518 21.98383 400.815470518 24.80917 363.468530518 29.59916C322.346090518 57.72495 322.346090518 77.49945 363.468530518 105.625246C400.713430518 110.415228 437.958720518 113.240568 475.101570518 114.100308C475.101570518 114.100308 475.101570518 182.879536 475.101570518 182.879536C475.101570518 182.879536 399.489730518 182.879536 399.489730518 182.879536C399.489730518 182.879536 399.489730518 295.626905 399.489730518 295.626905C399.489730518 295.626905 323.570980518 295.626905 323.570980518 295.626905C323.570980518 295.626905 323.570980518 361.09095 323.570980518 361.09095C323.570980518 361.09095 676.223590518 361.09095 676.223590518 361.09095C676.223590518 361.09095 676.223590518 295.626905 676.223590518 295.626905C676.223590518 295.626905 600.408470518 295.626905 600.408470518 295.626905C600.408470518 295.626905 600.408470518 182.879536 600.408470518 182.879536C600.408470518 182.879536 524.796630518 182.879536 524.796630518 182.879536C524.796630518 182.879536 524.796630518 114.100308 524.796630518 114.100308C561.939480518 113.240568 599.080740518 110.415228 636.427670518 105.625246C677.550120518 77.49945 677.550120518 57.72495 636.427670518 29.59916C599.182780518 24.80917 561.939480518 21.98383 524.796630518 21.12409C524.796630518 21.12409 524.796630518 0.0 524.796630518 0.0C524.796630518 0.0 475.101570518 0.0 475.101570518 0.0C475.101570518 0.0 475.101570518 0.0 475.101570518 0.0M447.040350518 239.990859C447.040350518 239.990859 553.061140518 239.990859 553.061140518 239.990859C553.061140518 239.990859 553.061140518 295.626905 553.061140518 295.626905C553.061140518 295.626905 447.040350518 295.626905 447.040350518 295.626905C447.040350518 295.626905 447.040350518 239.990859 447.040350518 239.990859C447.040350518 239.990859 447.040350518 239.990859 447.040350518 239.990859M323.672620518 421.02809C323.672620518 421.02809 323.672620518 461.18929 323.672620518 461.18929C323.672620518 461.18929 323.672620518 486.48974 323.672620518 486.48974C323.672620518 486.48974 323.672620518 494.84246 323.672620518 494.84246C347.346090518 494.84246 366.633390518 518.05497 366.633390518 546.54923C366.633390518 546.54923 366.633390518 620.11891 366.633390518 620.11891C366.633390518 648.24471 347.856690518 671.21158 324.591390518 671.82568C324.591390518 671.82568 167.550200518 671.82568 167.550200518 671.82568C167.550200518 671.82568 167.550200518 627.48812 167.550200518 627.48812C167.550200518 627.48812 108.673450518 627.48812 108.673450518 627.48812C108.673450518 627.48812 108.673450518 999.99989 108.673450518 999.99989C108.673450518 999.99989 167.550200518 999.99989 167.550200518 999.99989C167.550200518 999.99989 167.550200518 954.68121 167.550200518 954.68121C167.550200518 954.68121 832.449640518 954.68121 832.449640518 954.68121C832.449640518 954.68121 832.449640518 999.99989 832.449640518 999.99989C832.449640518 999.99989 891.326390518 999.99989 891.326390518 999.99989C891.326390518 999.99989 891.326390518 627.36578 891.326390518 627.36578C891.326390518 627.36578 832.449640518 627.36578 832.449640518 627.36578C832.449640518 627.36578 832.449640518 671.82568 832.449640518 671.82568C832.449640518 671.82568 675.408450518 671.82568 675.408450518 671.82568C652.143150518 671.21158 633.366450518 648.36753 633.366450518 620.11891C633.366450518 620.11891 633.366450518 546.54923 633.366450518 546.54923C633.366450518 518.05497 652.653750518 494.84246 676.327220518 494.84246C676.327220518 494.84246 676.327220518 486.48974 676.327220518 486.48974C676.327220518 486.48974 676.327220518 461.18929 676.327220518 461.18929C676.327220518 461.18929 676.327220518 421.02809 676.327220518 421.02809C676.327220518 421.02809 323.672620518 421.02809 323.672620518 421.02809C323.672620518 421.02809 323.672620518 421.02809 323.672620518 421.02809M1.7937e-08 627.36578C1.7937e-08 627.36578 1.7937e-08 999.87755 1.7937e-08 999.87755C1.7937e-08 999.87755 58.8767455176 999.87755 58.8767455176 999.87755C58.8767455176 999.87755 58.8767455176 627.36578 58.8767455176 627.36578C58.8767455176 627.36578 1.79370024279e-08 627.36578 1.79370024279e-08 627.36578C1.79370024279e-08 627.36578 1.79370024279e-08 627.36578 1.79370024279e-08 627.36578M941.123090518 627.36578C941.123090518 627.36578 941.123090518 999.87755 941.123090518 999.87755C941.123090518 999.87755 999.999840518 999.87755 999.999840518 999.87755C999.999840518 999.87755 999.999840518 627.36578 999.999840518 627.36578C999.999840518 627.36578 941.123090518 627.36578 941.123090518 627.36578C941.123090518 627.36578 941.123090518 627.36578 941.123090518 627.36578" /></g></svg>