<?xml version="1.0" encoding="UTF-8" standalone="no"?>
<!-- Svg Vector Icons : http://www.onlinewebfonts.com/icon -->

<svg
   xmlns:dc="http://purl.org/dc/elements/1.1/"
   xmlns:cc="http://creativecommons.org/ns#"
   xmlns:rdf="http://www.w3.org/1999/02/22-rdf-syntax-ns#"
   xmlns:svg="http://www.w3.org/2000/svg"
   xmlns="http://www.w3.org/2000/svg"
   xmlns:sodipodi="http://sodipodi.sourceforge.net/DTD/sodipodi-0.dtd"
   xmlns:inkscape="http://www.inkscape.org/namespaces/inkscape"
   version="1.1"
   x="0px"
   y="0px"
   viewBox="0 0 1000 1000"
   enable-background="new 0 0 1000 1000"
   xml:space="preserve"
   id="svg3336"
   inkscape:version="0.91 r13725"
   sodipodi:docname="valve.svg"
   width="282.22223mm"
   height="282.22223mm"><sodipodi:namedview
     pagecolor="#ffffff"
     bordercolor="#666666"
     borderopacity="1"
     objecttolerance="10"
     gridtolerance="10"
     guidetolerance="10"
     inkscape:pageopacity="0"
     inkscape:pageshadow="2"
     inkscape:window-width="1920"
     inkscape:window-height="1054"
     id="namedview3384"
     showgrid="false"
     units="mm"
     fit-margin-top="0"
     fit-margin-left="0"
     fit-margin-right="0"
     fit-margin-bottom="0"
     inkscape:zoom="0.435"
     inkscape:cx="374.88091"
     inkscape:cy="439.49701"
     inkscape:window-x="0"
     inkscape:window-y="0"
     inkscape:window-maximized="1"
     inkscape:current-layer="svg3336" /><defs
     id="defs3386" /><metadata
     id="metadata3338"> Svg Vector Icons : http://www.onlinewebfonts.com/icon <rdf:RDF><cc:Work
     rdf:about=""><dc:format>image/svg+xml</dc:format><dc:type
       rdf:resource="http://purl.org/dc/dcmitype/StillImage" /><dc:title></dc:title></cc:Work></rdf:RDF></metadata><g
     id="g3344"
     transform="translate(-1.7578088e-8,185.79993)"><g
       id="g3400"><path
         style="fill:#ff0000;fill-opacity:1"
         d="m 475.10161,-185.79993 c 0,0 0,0.002 0,0.002 0,0 49.69507,0 49.69507,0 0,0 0,-0.002 0,-0.002 0,0 -49.69507,0 -49.69507,0 0,0 0,0 0,0 m 49.69507,0.002 c 0,0 0,21.1217 0,21.1217 37.14286,0.85974 74.38617,3.68508 111.63107,8.47506 41.12244,28.12579 41.12244,47.9003 0,76.026093 -37.34694,4.789982 -74.48821,7.615322 -111.63107,8.475062 0,0 0,68.779232 0,68.779232 0,0 75.61185,0 75.61185,0 0,0 0,112.747373 0,112.747373 0,0 75.81513,0 75.81513,0 0,0 0,65.46405 0,65.46405 0,0 -352.65266,0 -352.65266,0 0,0 0,-65.46405 0,-65.46405 0,0 75.91877,0 75.91877,0 0,0 0,-112.747373 0,-112.747373 0,0 75.61184,0 75.61184,0 0,0 0,-68.779232 0,-68.779232 -37.14285,-0.85974 -74.38815,-3.68508 -111.63305,-8.475062 -41.12245,-28.125793 -41.12245,-47.900303 0,-76.026093 37.34694,-4.78998 74.4902,-7.61532 111.63305,-8.47506 0,0 0,-21.1217 0,-21.1217 0,0 -475.1016405,0 -475.1016405,0 0,0 0,627.36341 0,627.36341 0,0 58.8767545,0 58.8767545,0 0,0 0,372.51179 0,372.51179 0,0 -58.8767545,0 -58.8767545,0 0,0 0,0.12233 0,0.12233 0,0 108.6734705,0 108.6734705,0 0,0 0,-372.5118 0,-372.5118 0,0 58.87675,0 58.87675,0 0,0 0,44.33757 0,44.33757 0,0 157.04122,0 157.04122,0 23.2653,-0.6141 42.04201,-23.58098 42.04201,-51.70677 0,0 0,-73.56969 0,-73.56969 0,-28.49425 -19.28731,-51.70677 -42.96078,-51.70677 0,0 0,-8.35272 0,-8.35272 0,0 0,-25.30045 0,-25.30045 0,0 0,-40.1612 0,-40.1612 0,0 352.65466,0 352.65466,0 0,0 0,40.1612 0,40.1612 0,0 0,25.30045 0,25.30045 0,0 0,8.35272 0,8.35272 -23.67347,0 -42.96078,23.21252 -42.96078,51.70677 0,0 0,73.56969 0,73.56969 0,28.24861 18.7767,51.09267 42.04201,51.70677 0,0 157.04122,0 157.04122,0 0,0 0,-44.45991 0,-44.45991 0,0 58.87675,0 58.87675,0 0,0 0,372.63414 0,372.63414 0,0 108.6735,0 108.6735,0 0,0 0,-0.12233 0,-0.12233 0,0 -58.87679,0 -58.87679,0 0,0 0,-372.51179 0,-372.51179 0,0 58.87679,0 58.87679,0 0,0 0,-627.36341 0,-627.36341 0,0 -475.20332,0 -475.20332,0 0,0 0,0 0,0 M 447.04039,54.191 c 0,0 0,55.63605 0,55.63605 0,0 106.0208,0 106.0208,0 0,0 0,-55.63605 0,-55.63605 0,0 -106.0208,0 -106.0208,0 0,0 0,0 0,0 m -279.4902,714.69039 c 0,0 0,45.31868 0,45.31868 0,0 664.89956,0 664.89956,0 0,0 0,-45.31868 0,-45.31868 0,0 -664.89956,0 -664.89956,0 0,0 0,0 0,0"
         id="rect4743"
         inkscape:connector-curvature="0" /><path
         d="m 475.10161,-185.79993 c 0,0 0,21.12409 0,21.12409 -37.14285,0.85974 -74.28611,3.68508 -111.63305,8.47506 -41.12245,28.1258 -41.12245,47.9003 0,76.026097 37.2449,4.789982 74.4902,7.615323 111.63305,8.475063 0,0 0,68.779231 0,68.779231 0,0 -75.61184,0 -75.61184,0 0,0 0,112.747379 0,112.747379 0,0 -75.91877,0 -75.91877,0 0,0 0,65.46404 0,65.46404 0,0 352.65266,0 352.65266,0 0,0 0,-65.46404 0,-65.46404 0,0 -75.81513,0 -75.81513,0 0,0 0,-112.747379 0,-112.747379 0,0 -75.61185,0 -75.61185,0 0,0 0,-68.779231 0,-68.779231 37.14286,-0.85974 74.28413,-3.685081 111.63107,-8.475063 41.12244,-28.125797 41.12244,-47.900297 0,-76.026097 -37.2449,-4.78998 -74.48821,-7.61532 -111.63107,-8.47506 0,0 0,-21.12409 0,-21.12409 0,0 -49.69507,0 -49.69507,0 0,0 0,0 0,0 M 447.04039,54.19094 c 0,0 106.0208,0 106.0208,0 0,0 0,55.63605 0,55.63605 0,0 -106.0208,0 -106.0208,0 0,0 0,-55.63605 0,-55.63605 0,0 0,0 0,0 M 323.67264,235.22818 c 0,0 0,40.1612 0,40.1612 0,0 0,25.30045 0,25.30045 0,0 0,8.35272 0,8.35272 23.67347,0 42.96078,23.21252 42.96078,51.70677 0,0 0,73.56969 0,73.56969 0,28.12579 -18.77671,51.09267 -42.04201,51.70677 0,0 -157.04122,0 -157.04122,0 0,0 0,-44.33756 0,-44.33756 0,0 -58.87675,0 -58.87675,0 0,0 0,372.51179 0,372.51179 0,0 58.87675,0 58.87675,0 0,0 0,-45.31869 0,-45.31869 0,0 664.89956,0 664.89956,0 0,0 0,45.31869 0,45.31869 0,0 58.87675,0 58.87675,0 0,0 0,-372.63414 0,-372.63414 0,0 -58.87675,0 -58.87675,0 0,0 0,44.45991 0,44.45991 0,0 -157.04122,0 -157.04122,0 -23.26531,-0.6141 -42.04201,-23.45816 -42.04201,-51.70677 0,0 0,-73.56969 0,-73.56969 0,-28.49425 19.28731,-51.70677 42.96078,-51.70677 0,0 0,-8.35272 0,-8.35272 0,0 0,-25.30045 0,-25.30045 0,0 0,-40.1612 0,-40.1612 0,0 -352.65466,0 -352.65466,0 0,0 0,0 0,0 M -3.05e-5,441.56587 c 0,0 0,372.5118 0,372.5118 0,0 58.8767545,0 58.8767545,0 0,0 0,-372.5118 0,-372.5118 0,0 -58.8767545,0 -58.8767545,0 0,0 0,0 0,0 m 941.1232405,0 c 0,0 0,372.5118 0,372.5118 0,0 58.87679,0 58.87679,0 0,0 0,-372.5118 0,-372.5118 0,0 -58.87679,0 -58.87679,0 0,0 0,0 0,0"
         id="path3346"
         inkscape:connector-curvature="0" /></g></g></svg>